# xmcd
#
# Track frame offsets:
#	150
#	26188
#	47657
#	70866
#	102257
#	105467
#	129103
#	163610
#	188529
#	209487
#	224601
#	227910
#	241210
#	266922
#	295607
#
# Disc length: 4324 seconds
#
# Revision: 0
# Processed by: cddbd v1.5.1PL0 Copyright (c) Steve Scherf et al.
# Submitted via: dBpowerAMP V4.0
#
DISCID=d810e20f
DTITLE=The Curtis King Band Live - Caught With Our Pants Down
DYEAR=1900
DGENRE=Blues
TTITLE0=Caledonia
TTITLE1=Messing With The Kids
TTITLE2=Gimme Some Loving
TTITLE3=Bad Boy
TTITLE4=Take 1
TTITLE5=Mustang Sally
TTITLE6=The Thrill Is Gone
TTITLE7=Johnny B Goode
TTITLE8=Minnie The Moocher
TTITLE9=Midnight Hour
TTITLE10=Union Break
TTITLE11=Soul Man
TTITLE12=T-bone Shuffle
TTITLE13=Call It Stormy Monday
TTITLE14=Hey Joe
EXTD=Crazy Elephant
EXTT0=
EXTT1=
EXTT2=
EXTT3=
EXTT4=
EXTT5=
EXTT6=
EXTT7=
EXTT8=
EXTT9=
EXTT10=
EXTT11=
EXTT12=
EXTT13=
EXTT14=
PLAYORDER=
